<svg width="32" height="32" viewBox="0 0 32 32" fill="none" xmlns="http://www.w3.org/2000/svg">
    <g clip-path="url(#clip0_843_458)">
        <path d="M23.2019 21.8099H12.5028C12.0618 21.8099 11.7044 21.4525 11.7044 21.0115C11.7044 20.5705 12.0618 20.2131 12.5028 20.2131H23.2016C23.6426 20.2131 24 20.5705 24 21.0115C24 21.4525 23.6429 21.8099 23.2019 21.8099Z" fill="#2E3A4C"/>
        <path d="M23.2019 16.7984H12.5028C12.0618 16.7984 11.7044 16.441 11.7044 16C11.7044 15.5591 12.0618 15.2017 12.5028 15.2017H23.2016C23.6426 15.2017 24 15.5591 24 16C24.0003 16.441 23.6429 16.7984 23.2019 16.7984Z" fill="#2E3A4C"/>
        <path d="M23.2019 11.7872H12.5028C12.0618 11.7872 11.7044 11.4298 11.7044 10.9888C11.7044 10.5478 12.0618 10.1904 12.5028 10.1904H23.2016C23.6426 10.1904 24 10.5478 24 10.9888C24 11.4298 23.6429 11.7872 23.2019 11.7872Z" fill="#2E3A4C"/>
        <path d="M9.0722 12.1227C9.66436 12.1227 10.1444 11.6426 10.1444 11.0505C10.1444 10.4583 9.66436 9.97827 9.0722 9.97827C8.48004 9.97827 8 10.4583 8 11.0505C8 11.6426 8.48004 12.1227 9.0722 12.1227Z" fill="#2E3A4C"/>
        <path d="M9.0722 17.0724C9.66436 17.0724 10.1444 16.5923 10.1444 16.0002C10.1444 15.408 9.66436 14.928 9.0722 14.928C8.48004 14.928 8 15.408 8 16.0002C8 16.5923 8.48004 17.0724 9.0722 17.0724Z" fill="#2E3A4C"/>
        <path d="M9.0722 22.0218C9.66436 22.0218 10.1444 21.5418 10.1444 20.9496C10.1444 20.3575 9.66436 19.8774 9.0722 19.8774C8.48004 19.8774 8 20.3575 8 20.9496C8 21.5418 8.48004 22.0218 9.0722 22.0218Z" fill="#2E3A4C"/>
    </g>
    <defs>
        <clipPath id="clip0_843_458">
            <rect width="16" height="16" fill="white" transform="translate(8 8)"/>
        </clipPath>
    </defs>
</svg>