<svg width="17" height="16" viewBox="0 0 17 16" fill="none" xmlns="http://www.w3.org/2000/svg">
    <path d="M15.1667 11.28V13.28C15.1675 13.4657 15.1294 13.6494 15.055 13.8196C14.9807 13.9897 14.8716 14.1424 14.7348 14.2679C14.5979 14.3934 14.4364 14.489 14.2605 14.5485C14.0847 14.608 13.8983 14.63 13.7134 14.6133C11.6619 14.3904 9.69137 13.6894 7.96004 12.5667C6.34926 11.5431 4.98359 10.1774 3.96004 8.56667C2.83336 6.82747 2.1322 4.84733 1.91337 2.78667C1.89671 2.60231 1.91862 2.41651 1.9777 2.24108C2.03679 2.06566 2.13175 1.90446 2.25655 1.76775C2.38134 1.63103 2.53324 1.5218 2.70256 1.44701C2.87189 1.37222 3.05493 1.33351 3.24004 1.33333H5.24004C5.56357 1.33015 5.87723 1.44472 6.12254 1.65569C6.36786 1.86666 6.52809 2.15963 6.57337 2.48C6.65779 3.12004 6.81434 3.74848 7.04004 4.35333C7.12973 4.59195 7.14915 4.85127 7.09597 5.10059C7.0428 5.3499 6.91928 5.57874 6.74004 5.76L5.89337 6.60667C6.84241 8.2757 8.22434 9.65763 9.89337 10.6067L10.74 9.76C10.9213 9.58076 11.1501 9.45723 11.3994 9.40406C11.6488 9.35089 11.9081 9.3703 12.1467 9.46C12.7516 9.6857 13.38 9.84225 14.02 9.92667C14.3439 9.97235 14.6396 10.1355 14.8511 10.385C15.0625 10.6345 15.1748 10.953 15.1667 11.28Z" stroke="#2E3A4C" stroke-width="1.5" stroke-linecap="round" stroke-linejoin="round"/>
</svg>