<svg width="32" height="32" viewBox="0 0 32 32" fill="none" xmlns="http://www.w3.org/2000/svg">
    <path d="M15.8453 20.5372C13.2596 20.5372 11.1631 18.3708 11.1631 15.7851C11.1631 13.1994 13.2596 11.0329 15.8453 11.0329C18.4311 11.0329 20.5975 13.1295 20.5975 15.7851C20.5975 18.4407 18.5009 20.5372 15.8453 20.5372Z" fill="white"/>
    <path d="M15.8453 10.0546C12.7006 10.0546 10.1148 12.6403 10.1148 15.7851C10.1148 18.9299 12.7006 21.5156 15.8453 21.5156C18.9901 21.5156 21.5758 18.9299 21.5758 15.7851C21.5758 12.6403 19.06 10.0546 15.8453 10.0546ZM15.8453 20.5372C13.2596 20.5372 11.1631 18.3708 11.1631 15.7851C11.1631 13.1994 13.2596 11.0329 15.8453 11.0329C18.4311 11.0329 20.5975 13.1295 20.5975 15.7851C20.5975 18.4407 18.5009 20.5372 15.8453 20.5372Z" fill="#2E3A4C"/>
    <path d="M24.7903 13.6185V13.3389C24.7903 12.8498 24.5108 12.3606 24.0216 12.081L22.2046 10.9629L21.7853 9.28567C21.6456 8.58683 20.9467 8.02775 20.178 8.09764L18.0815 8.2374L16.8934 7.18914C16.6139 6.90961 16.2645 6.83972 15.8452 6.83972C15.4259 6.83972 15.1463 6.97949 14.7969 7.18914L13.6089 8.2374L11.5822 8.09764C10.8135 8.02775 10.1147 8.58683 9.90502 9.28567L9.34595 11.1027L7.66873 12.081C7.17954 12.3606 6.9 12.9196 6.9 13.4088C6.9 13.6185 6.96989 13.8281 7.03977 14.0378L7.73861 15.7849L7.03977 17.532C6.96989 17.7417 6.9 17.8814 6.9 18.0911C6.9 18.6501 7.17954 19.1393 7.66873 19.4189L9.48572 20.4671L9.90502 22.2142C10.0448 22.9131 10.7436 23.4023 11.4425 23.4023C11.5822 23.4023 11.4425 23.4023 13.6089 23.2625L14.8668 24.3108C15.1463 24.5903 15.4958 24.6602 15.9151 24.6602C16.2645 24.6602 16.6139 24.5204 16.9633 24.3108L18.2212 23.2625L20.3178 23.4023C21.0865 23.4722 21.7853 22.983 21.995 22.2142L22.4143 20.537C24.0915 19.5586 24.2313 19.4189 24.2313 19.4189C24.7205 19.1393 24.9301 18.6501 25 18.161V17.8814C25 17.7417 24.9301 17.6019 24.8602 17.4621L24.1614 15.715L24.7904 14.0378C24.7904 13.6884 24.7903 13.7583 24.7903 13.6185ZM22.9035 15.9945L23.7421 17.8814C23.812 18.0911 23.7421 18.3706 23.5324 18.5104L21.5058 19.6984C21.366 19.7683 21.2961 19.9081 21.2961 20.0478L20.807 21.9347C20.7371 22.2142 20.5274 22.354 20.2479 22.354L17.9417 22.1444C17.8019 22.1444 17.6622 22.1444 17.5923 22.2841L16.1946 23.4722C15.9849 23.6119 15.7054 23.6119 15.4958 23.4722L14.0981 22.2841C13.9583 22.2142 13.8185 22.1444 13.6788 22.1444L11.3726 22.354C11.0931 22.354 10.8834 22.2142 10.8135 21.9347L10.4641 20.0478C10.3942 19.9081 10.3243 19.7683 10.1846 19.6984L8.2278 18.5803C8.01815 18.4405 7.94826 18.161 8.01815 17.9513L8.78687 15.9945C8.85676 15.8548 8.85676 15.715 8.78687 15.5752L8.01815 13.6884C7.94826 13.4088 8.01815 13.1992 8.2278 13.0594L10.0448 11.9413C10.1846 11.8714 10.2544 11.8015 10.2544 11.6617C10.9533 9.49532 10.8834 9.63509 10.8834 9.63509C10.9533 9.35555 11.1629 9.21578 11.4425 9.21578L13.7487 9.42544C13.8884 9.42544 14.0282 9.35555 14.168 9.28567L15.4958 8.09764C15.7054 7.95787 15.9849 7.95787 16.1946 8.09764L17.5224 9.28567C17.6622 9.35555 17.8019 9.42544 17.8718 9.42544L20.2479 9.1459C20.5274 9.1459 20.7371 9.28567 20.807 9.5652L21.2961 11.4521C21.366 11.5918 21.4359 11.7316 21.5058 11.8015L23.5324 12.9895C23.7421 13.1293 23.812 13.4088 23.7421 13.6185L22.9734 15.5752C22.9035 15.715 22.9035 15.8548 22.9035 15.9945Z" fill="#2E3A4C"/>
    <path d="M19.0602 14.597L15.9154 17.7418C15.8455 17.8117 15.7057 17.8815 15.5659 17.8815C15.4262 17.8815 15.2864 17.8117 15.2165 17.7418L13.12 15.6452C12.9103 15.4356 12.9103 15.0862 13.12 14.8765C13.3296 14.6669 13.6791 14.6669 13.8887 14.8765L15.6358 16.6236L18.4312 13.8283C18.6408 13.6186 18.9903 13.6186 19.1999 13.8283C19.2698 14.0379 19.2698 14.3873 19.0602 14.597Z" fill="#2E3A4C"/>
</svg>